Coordinates
version=1
nRows=8
nColumns=34
inDegrees=yes

Units are S.I. units (second, meters, Newtons, ...)
If the header above contains a line with 'inDegrees', this indicates whether rotational values are in degrees (yes) or radians (no).

endheader
time	pelvis_tilt	pelvis_list	pelvis_rotation	pelvis_tx	pelvis_ty	pelvis_tz	hip_flexion_r	hip_adduction_r	hip_rotation_r	knee_angle_r	ankle_angle_r	subtalar_angle_r	mtp_angle_r	hip_flexion_l	hip_adduction_l	hip_rotation_l	knee_angle_l	ankle_angle_l	subtalar_angle_l	mtp_angle_l	lumbar_extension	lumbar_bending	lumbar_rotation	arm_flex_r	arm_add_r	arm_rot_r	elbow_flex_r	pro_sup_r	arm_flex_l	arm_add_l	arm_rot_l	elbow_flex_l	pro_sup_l
      6.43333330	      0.80555987	      3.64122872	    -35.90006522	      0.06529844	      1.00034572	     -0.04744262	     -3.38194843	     -2.51381904	     -2.02222156	      2.36625801	     10.82052695	      4.11003334	      0.00000000	     -3.39623383	     -2.12873377	     -7.82267302	      5.57683964	      9.44756857	      2.62964992	      0.00000000	     -2.86739428	      1.25846084	      5.32115032	      2.01261384	    -99.21234936	    -38.88743601	     21.80735710	    114.84893860	      1.59592598	    -87.30884153	    -53.19062805	     21.55870997	    119.74817918
      6.45000000	      0.80629641	      3.64315454	    -35.90102967	      0.06528082	      1.00032035	     -0.04745946	     -3.38242250	     -2.51279472	     -2.02237364	      2.36625880	     10.82048964	      4.10994587	      0.00000000	     -3.39617330	     -2.12914524	     -7.82260065	      5.57675268	      9.44761413	      2.62972738	      0.00000000	     -2.86741517	      1.25903087	      5.32049788	      2.01253866	    -99.21214082	    -38.88749629	     21.80727799	    114.84899522	      1.59588807	    -87.30867350	    -53.19065933	     21.55863650	    119.74817918
      6.46666670	      0.81003960	      3.64924492	    -35.90996375	      0.06518625	      1.00029847	     -0.04742678	     -3.38364175	     -2.51015094	     -2.02402955	      2.36433289	     10.82066325	      4.10878414	      0.00000000	     -3.39301620	     -2.13030943	     -7.82149051	      5.57530896	      9.44804777	      2.63065767	      0.00000000	     -2.86894233	      1.26351154	      5.31517886	      2.01165574	    -99.20871052	    -38.88757938	     21.80634698	    114.84945060	      1.59546712	    -87.30638806	    -53.19069877	     21.55779117	    119.74817918
      6.48333330	      0.79919967	      3.65281857	    -35.95682034	      0.06493076	      1.00032182	     -0.04754926	     -3.36934276	     -2.50264330	     -2.05700824	      2.30677824	     10.82429510	      4.08489608	      0.00000000	     -3.36963078	     -2.13210876	     -7.79747609	      5.57426297	      9.45505870	      2.64995645	      0.00000000	     -2.90547501	      1.28062751	      5.34535557	      1.98280939	    -99.13809946	    -38.88369462	     21.80050794	    114.85906049	      1.58994101	    -87.24985702	    -53.19617308	     21.52211215	    119.74817918
      6.50000000	      0.80105767	      3.65491905	    -35.95986273	      0.06490103	      1.00028367	     -0.04757973	     -3.36982231	     -2.50324999	     -2.05742723	      2.30643779	     10.82408588	      4.08463039	      0.00000000	     -3.36956423	     -2.13435508	     -7.79709292	      5.57428298	      9.45513124	      2.65016919	      0.00000000	     -2.90471809	      1.28205037	      5.34371581	      1.98266336	    -99.13739719	    -38.88379697	     21.80011407	    114.85919495	      1.58992368	    -87.24993014	    -53.19632545	     21.52190549	    119.74817918
      6.51666670	      0.80389545	      3.65439538	    -35.98198223	      0.06485017	      1.00024209	     -0.04762573	     -3.36844414	     -2.51022664	     -2.06066538	      2.30109148	     10.82331105	      4.08245184	      0.00000000	     -3.36831153	     -2.13776061	     -7.79418316	      5.57550918	      9.45554066	      2.65222509	      0.00000000	     -2.90330710	      1.29165235	      5.33179532	      1.98138042	    -99.12924820	    -38.88393150	     21.79666596	    114.86010924	      1.58978678	    -87.25037863	    -53.19722091	     21.52038219	    119.74817918
      6.53333330	      0.80457530	      3.65601219	    -35.98501902	      0.06483578	      1.00023812	     -0.04768072	     -3.36825820	     -2.51001971	     -2.06122470	      2.30019625	     10.82319893	      4.08212612	      0.00000000	     -3.36866864	     -2.13756502	     -7.79368506	      5.57604519	      9.45559805	      2.65260876	      0.00000000	     -2.90328439	      1.29407101	      5.33077941	      1.98099706	    -99.12727032	    -38.88382177	     21.79609869	    114.86027615	      1.58980083	    -87.25070092	    -53.19740871	     21.52012544	    119.74817918
      6.55000000	      0.80301271	      3.65176001	    -36.02498945	      0.06482435	      1.00020340	     -0.04778152	     -3.36046339	     -2.51760601	     -2.06845913	      2.28563808	     10.82256124	      4.07765823	      0.00000000	     -3.36595509	     -2.12193316	     -7.78753288	      5.58033692	      9.45616192	      2.65786255	      0.00000000	     -2.90913847	      1.32515918	      5.31456762	      1.97636941	    -99.10158438	    -38.88204391	     21.78871954	    114.86220498	      1.58991986	    -87.25630315	    -53.19928105	     21.51839656	    119.74817918
